<?xml version="1.0" encoding="UTF-8" standalone="no"?>
<!-- Created with Inkscape (http://www.inkscape.org/) -->

<svg
   width="15.875mm"
   height="7.4083333mm"
   viewBox="0 0 15.875 7.4083333"
   version="1.1"
   id="svg1"
   xml:space="preserve"
   inkscape:version="1.4.2 (f4327f4, 2025-05-13)"
   sodipodi:docname="Logo_Krus_.svg"
   inkscape:export-filename="Logo_Krus__.svg"
   inkscape:export-xdpi="96"
   inkscape:export-ydpi="96"
   xmlns:inkscape="http://www.inkscape.org/namespaces/inkscape"
   xmlns:sodipodi="http://sodipodi.sourceforge.net/DTD/sodipodi-0.dtd"
   xmlns="http://www.w3.org/2000/svg"
   xmlns:svg="http://www.w3.org/2000/svg"><sodipodi:namedview
     id="namedview1"
     pagecolor="#ffffff"
     bordercolor="#cbcbcb"
     borderopacity="0"
     inkscape:showpageshadow="2"
     inkscape:pageopacity="0.0"
     inkscape:pagecheckerboard="true"
     inkscape:deskcolor="#d1d1d1"
     inkscape:document-units="mm"
     inkscape:zoom="2.8284271"
     inkscape:cx="440.88108"
     inkscape:cy="494.09086"
     inkscape:window-width="1858"
     inkscape:window-height="1057"
     inkscape:window-x="1974"
     inkscape:window-y="-8"
     inkscape:window-maximized="1"
     inkscape:current-layer="layer1"
     showgrid="false"
     inkscape:export-bgcolor="#ffffff00"><inkscape:grid
       id="grid233"
       units="mm"
       originx="-88.81053"
       originy="-109.776"
       spacingx="0.99999998"
       spacingy="1"
       empcolor="#0099e5"
       empopacity="0.30196078"
       color="#0099e5"
       opacity="0.14902"
       empspacing="5"
       enabled="true"
       visible="false" /><inkscape:page
       x="0"
       y="0"
       width="15.875"
       height="7.4083333"
       id="page2"
       margin="0"
       bleed="0" /></sodipodi:namedview><defs
     id="defs1"><linearGradient
       id="swatch6"
       inkscape:swatch="solid"><stop
         style="stop-color:#be7373;stop-opacity:1;"
         offset="0"
         id="stop6" /></linearGradient><linearGradient
       id="swatch5"
       inkscape:swatch="solid"><stop
         style="stop-color:#000000;stop-opacity:1;"
         offset="0"
         id="stop5" /></linearGradient><linearGradient
       id="swatch4"
       inkscape:swatch="solid"><stop
         style="stop-color:#525252;stop-opacity:1;"
         offset="0"
         id="stop4" /></linearGradient><style
       id="style1">
      /* fallback styles */
    </style><clipPath
       clipPathUnits="userSpaceOnUse"
       id="clipPath3"><rect
         style="display:inline;opacity:0.486;fill:#aa0000;stroke:#000000;stroke-width:1.3581"
         id="rect3"
         width="62.257004"
         height="13.826159"
         x="73.361069"
         y="141.52003"
         rx="2.1257794"
         ry="0.74055481" /></clipPath></defs><g
     inkscape:label="Слой 1"
     inkscape:groupmode="layer"
     id="layer1"
     style="display:inline"
     transform="translate(-88.810532,-109.776)"><g
       id="g22"
       transform="matrix(2.860609,0,0,2.8516743,-317.76474,-238.91005)"
       inkscape:export-filename="g22.svg"
       inkscape:export-xdpi="96"
       inkscape:export-ydpi="96"><rect
         style="display:inline;fill:#3c474e;fill-opacity:1;stroke:none;stroke-width:0.000662602;stroke-linecap:round;stroke-linejoin:round;stroke-dasharray:none;stroke-opacity:1;paint-order:markers stroke fill"
         id="rect11"
         width="5.5495176"
         height="2.5978889"
         x="142.12892"
         y="122.27415"
         rx="0.18234955"
         ry="0.12768616" /><rect
         style="display:inline;fill:#e6e6e6;fill-opacity:1;stroke:none;stroke-width:0.000639583;stroke-linecap:round;stroke-linejoin:round;stroke-dasharray:none;stroke-opacity:1;paint-order:markers stroke fill"
         id="rect8"
         width="5.3741217"
         height="2.4270687"
         x="142.21661"
         y="122.35954"
         rx="0.17820001"
         ry="0.12173913" /><g
         id="g211"
         transform="matrix(0.08382807,0,0,0.16438908,136.14452,99.172309)"
         clip-path="url(#clipPath3)"
         style="display:inline;stroke:none;stroke-width:0.00544837;stroke-linecap:round;stroke-linejoin:round;stroke-dasharray:none;paint-order:markers stroke fill"><path
           style="display:inline;fill:#2fc398;stroke:none;stroke-width:0.00544837;stroke-linecap:round;stroke-linejoin:round;stroke-dasharray:none;paint-order:markers stroke fill"
           d="M 104.8659,164.83542 H 56.711734 v -16.40417 -16.40417 h 48.154166 48.15417 v 16.40417 16.40417 z m 13.04175,-13.49257 0.53296,0.003 0.40109,-0.0483 0.40109,-0.0483 0.41537,-0.11154 0.41537,-0.11153 0.32227,-0.14406 0.32227,-0.14405 h 0.0292 0.0291 l 0.0285,0.17572 0.0285,0.17572 0.11437,0.0646 0.11437,0.0646 h 0.95759 0.95759 l 0.13117,-0.0852 0.13116,-0.0852 -0.0169,-2.28457 -0.0169,-2.28457 -0.11191,-0.0572 -0.1119,-0.0572 h -0.96735 -0.96735 l -0.11206,0.0572 -0.11206,0.0572 -0.0334,1.51276 -0.0334,1.51276 -0.0862,0.11214 -0.0862,0.11214 -0.1727,0.12987 -0.17271,0.12988 -0.25777,0.0913 -0.25778,0.0913 -0.32565,0.0432 -0.32565,0.0432 h -0.27207 -0.27208 l -0.29398,-0.0378 -0.29398,-0.0378 -0.31839,-0.16269 -0.31839,-0.16269 -0.11754,-0.15992 -0.11754,-0.15993 -0.0346,-1.54435 -0.0346,-1.54435 -0.0815,-0.0416 -0.0815,-0.0416 h -0.9621 -0.9621 l -0.13209,0.061 -0.13208,0.061 v 1.67501 1.67501 l 0.093,0.22596 0.093,0.22597 0.20369,0.21347 0.20369,0.21347 0.27485,0.15621 0.27486,0.15621 0.26127,0.0782 0.26127,0.0782 0.2801,0.0513 0.2801,0.0514 0.25081,0.0263 0.2508,0.0263 z m 10.81588,-0.0102 0.87781,-0.0108 0.50161,-0.0825 0.5016,-0.0825 0.37621,-0.11362 0.3762,-0.11363 0.27634,-0.15184 0.27633,-0.15183 0.17558,-0.19224 0.17558,-0.19223 0.0699,-0.22428 0.0699,-0.22427 -0.0422,-0.17566 -0.0422,-0.17565 -0.12244,-0.16722 -0.12244,-0.16722 -0.28622,-0.16267 -0.28621,-0.16267 -0.50985,-0.12593 -0.50985,-0.12593 -1.22266,-0.16551 -1.22267,-0.16552 -0.38743,-0.0927 -0.38743,-0.0927 -0.12985,-0.10735 -0.12985,-0.10736 v -0.10194 -0.10193 l 0.0918,-0.0907 0.0918,-0.0907 0.1923,-0.0827 0.1923,-0.0827 0.23318,-0.0331 0.23318,-0.0331 h 0.40756 0.40755 l 0.22683,0.0322 0.22683,0.0322 0.21208,0.0726 0.21207,0.0726 0.21223,0.16735 0.21222,0.16734 H 131.07561 132 l 0.0823,-0.0506 0.0822,-0.0506 -0.0689,-0.16776 -0.0689,-0.16776 -0.1432,-0.15806 -0.1432,-0.15805 -0.38108,-0.19224 -0.38108,-0.19223 -0.41048,-0.1016 -0.41047,-0.1016 -0.37201,-0.0528 -0.372,-0.0528 -0.75653,-0.0179 -0.75653,-0.0179 -0.52883,0.0543 -0.52884,0.0543 -0.44102,0.10786 -0.44102,0.10786 -0.29001,0.13044 -0.29001,0.13045 -0.1965,0.15159 -0.19651,0.15159 -0.12985,0.21847 -0.12986,0.21846 0.0263,0.31062 0.0263,0.31063 0.13624,0.15473 0.13625,0.15473 0.19035,0.12281 0.19035,0.12281 0.35611,0.12079 0.35611,0.12078 0.45307,0.0899 0.45308,0.0899 1.1964,0.15947 1.19639,0.15946 0.14099,0.0371 0.14099,0.0371 0.14012,0.0652 0.14012,0.0652 0.0369,0.1005 0.0369,0.10051 -0.108,0.13793 -0.108,0.13793 -0.24603,0.0911 -0.24602,0.0911 -0.35166,0.0373 -0.35166,0.0373 -0.38049,-0.0218 -0.38049,-0.0218 -0.27986,-0.063 -0.27986,-0.063 -0.12038,-0.0549 -0.12038,-0.0548 -0.24442,-0.16821 -0.24442,-0.1682 h -0.9622 -0.96221 l -0.0823,0.0506 -0.0823,0.0506 0.073,0.17788 0.073,0.17788 0.13507,0.14257 0.13506,0.14257 0.32924,0.18158 0.32925,0.18158 0.39939,0.12118 0.39939,0.12118 0.41758,0.0653 0.41757,0.0653 0.30348,0.0281 0.30349,0.0281 z m -31.271991,-0.11449 1.018887,4.9e-4 0.125401,-0.0641 0.125402,-0.0641 v -0.92604 -0.92604 l 0.47389,-0.32078 0.47389,-0.32078 0.105986,-0.0208 0.105985,-0.0208 0.15686,0.0902 0.15686,0.0902 1.74458,1.20963 1.74459,1.20962 0.11664,0.0319 0.11664,0.0319 h 1.2309 1.23091 l 0.12128,-0.0332 0.12128,-0.0332 v -0.073 -0.073 l -2.35128,-1.64463 -2.35127,-1.64463 v -0.073 -0.073 l 0.14746,-0.0906 0.14746,-0.0906 1.98436,-1.30873 1.98437,-1.30874 v -0.0449 -0.0449 l -0.12924,-0.066 -0.12924,-0.066 -1.15124,0.01 -1.15124,0.01 -0.16892,0.0801 -0.16892,0.0801 -2.06696,1.36956 -2.066962,1.36955 -0.10299,0.0294 -0.102989,0.0295 -0.111345,-0.0305 -0.111345,-0.0305 v -1.39259 -1.39259 l -0.125402,-0.0641 -0.125401,-0.0641 h -1.006062 -1.006062 l -0.153902,0.0786 -0.153902,0.0786 v 3.15944 3.15944 l 0.07209,0.07 0.07209,0.07 0.06899,0.0235 0.06899,0.0235 z m 11.574241,4.9e-4 h 0.96215 l 0.11944,-0.0674 0.11944,-0.0674 0.0348,-1.33433 0.0348,-1.33434 0.1072,-0.16562 0.1072,-0.16562 0.24144,-0.16419 0.24145,-0.1642 0.20886,-0.0787 0.20886,-0.0787 0.3421,-0.0654 0.3421,-0.0654 0.5021,-0.0198 0.50211,-0.0198 0.11533,-0.0589 0.11533,-0.0589 v -0.45844 -0.45845 l -0.0846,-0.0592 -0.0847,-0.0592 -0.34204,-0.0145 -0.34205,-0.0145 -0.40254,0.0527 -0.40254,0.0527 -0.2837,0.0842 -0.2837,0.0842 -0.478,0.23662 -0.47801,0.23661 -0.0393,-0.0523 -0.0393,-0.0523 v -0.18607 -0.18606 l -0.11986,-0.0756 -0.11986,-0.0756 h -0.88889 -0.88889 l -0.11986,0.0756 -0.11986,0.0756 v 2.28726 2.28727 l 0.1254,0.0641 0.1254,0.0641 z"
           id="path228" /><path
           style="display:inline;opacity:1;fill:#3c474e;stroke:none;stroke-width:0.00544837;stroke-linecap:round;stroke-linejoin:round;stroke-dasharray:none;paint-order:markers stroke fill"
           d="M 104.8659,164.83542 H 56.711734 v -16.40417 -16.40417 h 48.154166 48.15417 v 16.40417 16.40417 z m 13.04175,-13.46053 0.53296,0.003 0.40109,-0.0483 0.40109,-0.0483 0.42968,-0.11538 0.42969,-0.11538 0.27611,-0.12419 0.27611,-0.12419 h 0.0374 0.0374 v 0.0913 0.0913 l 0.0693,0.10158 0.0693,0.10157 0.11468,0.0314 0.11469,0.0314 h 0.94463 0.94463 l 0.12381,-0.0633 0.12381,-0.0633 0.035,-0.0729 0.035,-0.0729 -0.0177,-2.24989 -0.0177,-2.24988 -0.14282,-0.073 -0.14282,-0.073 h -0.96838 -0.96838 l -0.14281,0.0729 -0.14282,0.0729 -0.0314,1.51302 -0.0314,1.51301 -0.16196,0.17641 -0.16196,0.17641 -0.19708,0.10071 -0.19708,0.10071 -0.27536,0.0681 -0.27537,0.0681 -0.40739,0.0194 -0.4074,0.0194 -0.3341,-0.041 -0.3341,-0.041 -0.29086,-0.14863 -0.29087,-0.14863 -0.11747,-0.15907 -0.11748,-0.15907 -0.0203,-1.53789 -0.0203,-1.53789 -0.12528,-0.0641 -0.12528,-0.0641 h -1.00701 -1.00701 l -0.11986,0.0756 -0.11986,0.0756 v 1.67642 1.67643 l 0.095,0.23085 0.095,0.23085 0.18878,0.20212 0.18877,0.20212 0.3202,0.17902 0.32019,0.17902 0.26019,0.0779 0.26018,0.0779 0.2801,0.0513 0.2801,0.0514 0.25081,0.0263 0.2508,0.0263 z m 10.81588,-0.01 0.87781,-0.0102 0.43891,-0.0717 0.4389,-0.0718 0.35145,-0.0906 0.35145,-0.0906 0.35336,-0.16502 0.35336,-0.16502 0.2188,-0.22934 0.21881,-0.22934 0.0684,-0.22428 0.0684,-0.22427 -0.0422,-0.17566 -0.0422,-0.17565 -0.12885,-0.17597 -0.12884,-0.17597 -0.31738,-0.17148 -0.31737,-0.17147 -0.50363,-0.12431 -0.50364,-0.12431 -1.19131,-0.1622 -1.19132,-0.1622 -0.32902,-0.0671 -0.32902,-0.0672 -0.18826,-0.10956 -0.18826,-0.10957 v -0.1223 -0.12231 l 0.14129,-0.10713 0.14129,-0.10713 0.21924,-0.0658 0.21924,-0.0658 h 0.65836 0.65836 l 0.28617,0.086 0.28617,0.086 0.23175,0.17836 0.23175,0.17835 h 0.93015 0.93016 l 0.1161,-0.0656 0.11611,-0.0656 -0.0735,-0.17899 -0.0735,-0.17899 -0.13862,-0.14794 -0.13863,-0.14793 -0.41157,-0.20932 -0.41157,-0.20932 -0.40756,-0.10051 -0.40755,-0.10051 -0.37621,-0.0529 -0.3762,-0.0529 -0.75653,-0.0179 -0.75653,-0.0179 -0.52883,0.0543 -0.52884,0.0543 -0.45244,0.11067 -0.45244,0.11066 -0.36567,0.173 -0.36567,0.17299 -0.16389,0.15473 -0.16389,0.15474 -0.10653,0.18861 -0.10654,0.18862 0.0253,0.30799 0.0253,0.308 0.16259,0.18006 0.16259,0.18006 0.22996,0.13007 0.22996,0.13006 0.31087,0.10194 0.31087,0.10193 0.46459,0.0922 0.46458,0.0922 1.20742,0.16093 1.20741,0.16094 0.19267,0.0573 0.19268,0.0573 0.0844,0.0892 0.0844,0.0892 -0.0375,0.1014 -0.0375,0.1014 -0.11909,0.0998 -0.11909,0.0998 -0.30396,0.0764 -0.30395,0.0764 -0.57276,-0.001 -0.57277,-0.001 -0.36278,-0.0951 -0.36279,-0.0951 -0.29231,-0.19224 -0.2923,-0.19223 -0.95988,-0.009 -0.95988,-0.009 -0.11652,0.0539 -0.11652,0.0539 v 0.0861 0.0861 l 0.11892,0.17662 0.11892,0.17663 0.1552,0.12475 0.1552,0.12476 0.37234,0.1807 0.37234,0.18069 0.37571,0.0969 0.3757,0.0969 0.36232,0.0538 0.36232,0.0538 0.29276,0.0272 0.29276,0.0272 z m -31.269141,-0.1168 1.021737,0.003 0.153901,-0.0786 0.153902,-0.0786 v -0.92696 -0.92696 l 0.447612,-0.3 0.447612,-0.3 0.06398,-0.0211 0.06398,-0.0211 0.08281,0.0162 0.08281,0.0162 1.797927,1.24793 1.79794,1.24794 0.15549,0.0625 0.1555,0.0625 h 1.28765 1.28765 l 0.11466,-0.053 0.11466,-0.053 v -0.0716 -0.0716 l -2.35128,-1.64447 -2.35127,-1.64446 10e-4,-0.0652 0.001,-0.0651 0.95032,-0.62477 0.95032,-0.62477 1.1801,-0.77907 1.18011,-0.77907 v -0.0474 -0.0474 l -0.1539,-0.0786 -0.15391,-0.0786 h -1.07077 -1.07078 l -0.20176,0.0431 -0.20177,0.0431 -2.06864,1.37464 -2.068634,1.37463 -0.138079,0.0718 -0.138078,0.0718 -0.09753,-0.0191 -0.09753,-0.0191 v -1.39174 -1.39174 l -0.153902,-0.0786 -0.153901,-0.0786 h -0.971762 -0.971761 l -0.152788,0.0356 -0.152788,0.0356 -0.06962,0.0781 -0.06961,0.0781 v 3.13994 3.13994 l 0.09273,0.0916 0.09273,0.0916 0.0797,0.0164 0.0797,0.0164 z m 11.551031,0.003 h 0.94748 l 0.11854,-0.0324 0.11854,-0.0324 0.0651,-0.11977 0.0651,-0.11977 3.5e-4,-1.17587 3.5e-4,-1.17587 0.0699,-0.16978 0.0699,-0.16979 0.15045,-0.16424 0.15045,-0.16425 0.30012,-0.14344 0.30011,-0.14345 0.36693,-0.0701 0.36693,-0.0702 0.50519,-0.0199 0.50519,-0.0199 0.1436,-0.0734 0.14359,-0.0734 v -0.46248 -0.46248 l -0.11371,-0.0718 -0.11371,-0.0718 -0.31357,-0.0154 -0.31356,-0.0154 -0.35457,0.0376 -0.35457,0.0376 -0.37493,0.0957 -0.37494,0.0957 -0.43362,0.22158 -0.43362,0.22157 -0.0398,-0.0203 -0.0398,-0.0204 v -0.18511 -0.18511 l -0.15132,-0.0899 -0.15132,-0.0899 h -0.88867 -0.88867 l -0.15132,0.0899 -0.15133,0.0899 v 2.29049 2.29048 l 0.15391,0.0786 0.1539,0.0786 z m -25.137047,-1.76345 0.163971,0.001 0.159908,-0.0643 0.159907,-0.0643 1.227965,-1.57995 1.227964,-1.57996 v -0.0884 -0.0884 l -0.191011,-0.0976 -0.191011,-0.0976 -0.228849,0.019 -0.228848,0.019 -0.138013,0.0731 -0.138013,0.0731 -1.173393,1.50585 -1.173393,1.50585 -0.05183,0.089 -0.05183,0.089 0.06548,0.096 0.06548,0.096 0.165777,0.046 0.165777,0.046 z m -1.775402,-0.48134 0.08149,0.002 0.179766,-0.0475 0.179766,-0.0475 0.06981,-0.10808 0.06981,-0.10808 -0.05947,-0.0767 -0.05947,-0.0767 -0.820221,-0.41605 -0.82022,-0.41605 v -0.046 -0.046 l 0.87781,-0.4524 0.87781,-0.45241 v -0.10097 -0.10097 l -0.150097,-0.0892 -0.150097,-0.0892 H 82.10798 81.846316 l -1.155757,0.5953 -1.155756,0.59531 v 0.13885 0.13885 l 1.112938,0.5737 1.112938,0.57369 0.125401,0.027 0.125402,0.027 z m 5.843731,-0.0177 0.156751,-0.016 1.142138,-0.58148 1.142138,-0.58147 0.03706,-0.0862 0.03706,-0.0862 -0.09056,-0.10744 -0.09056,-0.10745 -1.061463,-0.53666 -1.061462,-0.53666 H 87.94408 87.740356 l -0.12063,0.033 -0.120631,0.033 -0.0998,0.0986 -0.0998,0.0986 0.04153,0.0847 0.04153,0.0846 0.85519,0.44107 0.855189,0.44107 -0.857169,0.44001 -0.857169,0.44002 -0.06424,0.0881 -0.06425,0.0881 0.05395,0.0721 0.05395,0.0721 0.116922,0.0519 0.116922,0.0519 0.09405,0.0183 0.09405,0.0183 z"
           id="path221" /><path
           style="display:inline;opacity:0.995;mix-blend-mode:screen;fill:#5d536c;stroke:none;stroke-width:0.00544837;stroke-linecap:round;stroke-linejoin:round;stroke-dasharray:none;paint-order:markers stroke fill"
           d="M 104.8659,164.83542 H 56.711734 v -16.40417 -16.40417 h 48.154166 48.15417 v 16.40417 16.40417 z m -19.938834,-11.57703 6.740329,-0.005 0.294372,-0.0741 0.294372,-0.0741 0.251472,-0.1285 0.251471,-0.1285 0.129374,-0.17669 0.129374,-0.17669 -0.01686,-3.9941 -0.01686,-3.99409 -0.13808,-0.13189 -0.138079,-0.13189 -0.162627,-0.0988 -0.162628,-0.0988 -0.357651,-0.0898 -0.357651,-0.0897 h -6.897081 -6.897081 l -0.357651,0.0897 -0.357651,0.0898 -0.162627,0.0988 -0.162627,0.0988 -0.13808,0.13189 -0.13808,0.13189 v 4.05298 4.05298 l 0.138655,0.13247 0.138655,0.13246 0.197769,0.10106 0.197769,0.10106 0.242584,0.0632 0.242584,0.0632 0.236102,0.0288 0.236102,0.0288 z m -0.167646,-0.69406 h -6.647299 l -0.103769,-0.0586 -0.103769,-0.0586 v -3.89331 -3.8933 l 0.114664,-0.053 0.114663,-0.053 h 6.611715 6.611715 l 0.139352,0.0499 0.139353,0.0499 v 3.90202 3.90202 l -0.114663,0.053 -0.114664,0.053 z m -0.42972,-0.70486 h 4.867244 l 0.176157,-0.0465 0.176156,-0.0465 0.07515,-0.0927 0.07515,-0.0927 -0.04027,-0.082 -0.04027,-0.082 -0.138354,-0.0664 -0.138353,-0.0664 -4.933848,-0.002 -4.933849,-0.002 -0.125218,0.0342 -0.125217,0.0342 -0.06414,0.0612 -0.06414,0.0612 v 0.10069 0.10069 l 0.183279,0.0936 0.18328,0.0937 z m -0.479077,-1.00684 4.159069,-0.002 0.189764,-0.10853 0.189765,-0.10853 -0.03604,-0.11575 -0.03604,-0.11575 -0.162366,-0.0721 -0.162365,-0.0721 h -4.264977 -4.264976 l -0.18328,0.0936 -0.183279,0.0936 v 0.10748 0.10747 l 0.09686,0.0707 0.09686,0.0707 0.200968,0.027 0.200967,0.027 z m 0.104582,-1.31993 0.188102,-0.0182 0.165229,-0.0851 0.165229,-0.0851 1.234318,-1.59518 1.234317,-1.59519 -0.04042,-0.094 -0.04041,-0.094 -0.188304,-0.081 -0.188303,-0.081 H 86.23996 85.994957 l -0.187908,0.0881 -0.187908,0.0881 -1.198333,1.53789 -1.198334,1.53789 -0.03214,0.0992 -0.03214,0.0992 0.104738,0.10349 0.104738,0.1035 0.19972,0.0448 0.199719,0.0448 z M 82.105701,149.04 h 0.260281 l 0.183279,-0.0936 0.183279,-0.0937 v -0.13615 -0.13615 l -0.881577,-0.45434 -0.881576,-0.45435 0.847006,-0.43082 0.847006,-0.43081 0.06851,-0.0921 0.06851,-0.0921 -0.03855,-0.0897 -0.03855,-0.0897 -0.188303,-0.081 -0.188304,-0.081 H 82.088896 81.83108 l -1.150296,0.58468 -1.150295,0.58468 -0.06634,0.11315 -0.06634,0.11315 0.08418,0.10237 0.08418,0.10238 0.77744,0.40095 0.777439,0.40096 0.362194,0.17654 0.362194,0.17653 z m 5.694046,-7.1e-4 0.207899,7.1e-4 0.136955,-0.0361 0.136955,-0.0361 0.998104,-0.51654 0.998104,-0.51655 0.114421,-0.0801 0.11442,-0.0801 4.14e-4,-0.10572 4.13e-4,-0.10571 -0.0898,-0.0865 -0.0898,-0.0865 -1.023142,-0.51908 -1.023141,-0.51908 -0.18332,-0.0349 -0.18332,-0.0349 -0.175514,0.0197 -0.175515,0.0197 -0.158447,0.0962 -0.158447,0.0962 v 0.13115 0.13114 l 0.859291,0.44313 0.85929,0.44313 -0.890641,0.45902 -0.89064,0.45902 v 0.10376 0.10375 l 0.07004,0.07 0.07004,0.07 0.133738,0.0554 0.133738,0.0554 z m 30.264663,2.35969 0.75241,-0.0103 0.4389,-0.0858 0.43891,-0.0858 0.42422,-0.14712 0.42423,-0.14713 0.0526,-0.0481 0.0526,-0.0481 0.0421,0.16234 0.0421,0.16234 0.16347,0.0657 0.16347,0.0657 h 0.98383 0.98383 l 0.152,-0.0827 0.15201,-0.0827 0.0169,-2.28008 0.0169,-2.28008 -0.0747,-0.0922 -0.0748,-0.0922 -0.20663,-0.0441 -0.20664,-0.0441 h -0.77642 -0.77641 l -0.19879,0.0354 -0.19878,0.0354 -0.077,0.0687 -0.077,0.0687 -0.0314,1.50585 -0.0313,1.50585 -0.17563,0.18276 -0.17563,0.18275 -0.19328,0.0831 -0.19327,0.0831 -0.2581,0.0693 -0.25811,0.0693 -0.5643,0.001 -0.56431,0.001 -0.26256,-0.0769 -0.26256,-0.0769 -0.18222,-0.13139 -0.18223,-0.13139 -0.086,-0.11214 -0.0859,-0.11214 -0.0169,-1.53108 -0.017,-1.53108 -0.0647,-0.0617 -0.0647,-0.0617 -0.23411,-0.0358 -0.2341,-0.0358 -0.86772,0.0107 -0.86771,0.0107 -0.15117,0.0899 -0.15118,0.0899 0.001,1.68829 10e-4,1.68829 0.0922,0.22428 0.0922,0.22428 0.22043,0.22891 0.22043,0.22891 0.27977,0.15901 0.27976,0.159 0.43454,0.11668 0.43455,0.11668 0.36711,0.0473 0.36712,0.0472 z m 10.62777,4.3e-4 0.90916,-0.009 0.62701,-0.11074 0.62701,-0.11074 0.3686,-0.12502 0.36861,-0.12502 0.27483,-0.17838 0.27483,-0.17837 0.1267,-0.17221 0.1267,-0.17221 0.0709,-0.23315 0.0709,-0.23316 -0.068,-0.20967 -0.068,-0.20967 -0.16609,-0.16993 -0.16609,-0.16993 -0.19943,-0.10592 -0.19943,-0.10592 -0.28379,-0.0931 -0.28378,-0.0931 -0.42547,-0.0818 -0.42546,-0.0818 -1.07184,-0.14415 -1.07184,-0.14416 -0.36979,-0.0848 -0.36979,-0.0848 -0.12202,-0.0793 -0.12203,-0.0793 v -0.10941 -0.1094 l 0.0925,-0.0914 0.0925,-0.0914 0.2318,-0.0732 0.23181,-0.0732 0.50644,-0.0135 0.50645,-0.0135 0.2673,0.0369 0.26731,0.0369 0.22232,0.0998 0.22232,0.0997 0.11904,0.11923 0.11904,0.11923 0.10185,0.02 0.10185,0.02 h 0.90403 0.90403 l 0.13321,-0.0681 0.13321,-0.0681 -0.038,-0.16394 -0.038,-0.16393 -0.20053,-0.20854 -0.20054,-0.20854 -0.34926,-0.17862 -0.34926,-0.17862 -0.47026,-0.11726 -0.47025,-0.11726 -0.37621,-0.0517 -0.3762,-0.0517 -0.81511,-0.0159 -0.81511,-0.0159 -0.47025,0.0505 -0.47026,0.0505 -0.50161,0.12655 -0.5016,0.12656 -0.25987,0.11395 -0.25987,0.11396 -0.22126,0.17033 -0.22125,0.17032 -0.1354,0.20539 -0.1354,0.20538 0.0209,0.33756 0.0209,0.33756 0.19975,0.21545 0.19974,0.21546 0.28132,0.13971 0.28132,0.13971 0.4281,0.11344 0.4281,0.11343 0.5016,0.0822 0.50161,0.0822 0.99572,0.13071 0.99572,0.13071 0.17726,0.0535 0.17726,0.0535 0.0712,0.0879 0.0712,0.0879 -0.0416,0.0967 -0.0416,0.0967 -0.127,0.0825 -0.12699,0.0825 -0.26055,0.0687 -0.26055,0.0687 -0.50161,0.001 -0.50161,0.001 -0.2508,-0.0428 -0.2508,-0.0427 -0.20908,-0.0798 -0.20908,-0.0798 -0.21929,-0.15598 -0.21929,-0.15597 -0.25924,-0.0357 -0.25925,-0.0357 -0.77573,0.0111 -0.77574,0.0111 -0.12675,0.08 -0.12674,0.08 0.0345,0.14874 0.0345,0.14874 0.18205,0.2038 0.18206,0.2038 0.29279,0.16537 0.29279,0.16537 0.34216,0.11605 0.34215,0.11605 0.42512,0.0822 0.42511,0.0822 0.40756,0.0438 0.40755,0.0438 z m -31.253044,-0.11665 h 1.07689 l 0.165302,-0.0845 0.165302,-0.0845 v -0.9272 -0.9272 l 0.47428,-0.31617 0.47428,-0.31617 0.07435,0.0167 0.07435,0.0167 0.57812,0.40599 0.57811,0.40598 1.19402,0.83303 1.19403,0.83302 0.19653,0.0721 0.19653,0.0721 h 1.30745 1.30744 l 0.1254,-0.0641 0.1254,-0.0641 v -0.0769 -0.0769 l -0.20798,-0.1554 -0.20798,-0.15541 -1.80818,-1.26556 -1.80818,-1.26555 -0.33512,-0.22852 -0.33511,-0.22851 v -0.0531 -0.0531 l 0.45843,-0.2951 0.45844,-0.29509 1.06689,-0.70487 1.0669,-0.70486 0.60639,-0.4005 0.60638,-0.40049 1.1e-4,-0.0735 1.1e-4,-0.0735 -0.1539,-0.0786 -0.15391,-0.0786 -1.14713,1.2e-4 -1.14714,1.2e-4 -0.20053,0.0625 -0.20053,0.0625 -0.50557,0.32989 -0.50557,0.32988 -1.53987,1.02526 -1.539874,1.02526 -0.122807,0.0734 -0.122807,0.0734 -0.06088,-0.0192 -0.06088,-0.0192 v -1.39328 -1.39328 l -0.153902,-0.0786 -0.153902,-0.0786 H 97.47356 96.408294 l -0.175923,0.0773 -0.175924,0.0773 -0.01812,3.15065 -0.01813,3.15065 0.03669,0.10426 0.03669,0.10425 0.134337,0.0639 0.134336,0.064 z m 11.553464,-0.003 0.9603,0.003 0.12659,-0.0346 0.12659,-0.0346 0.0887,-0.10853 0.0888,-0.10853 v -1.20093 -1.20093 l 0.0705,-0.16978 0.0705,-0.16979 0.1511,-0.15328 0.15109,-0.15328 0.25257,-0.12905 0.25256,-0.12906 0.2644,-0.0579 0.2644,-0.0579 0.33044,-0.0362 0.33044,-0.0362 h 0.31327 0.31327 l 0.1539,-0.0786 0.1539,-0.0787 v -0.47942 -0.47943 l -0.0389,-0.0519 -0.0389,-0.0519 -0.1774,-0.0469 -0.17739,-0.0469 -0.33229,3.8e-4 -0.33229,3.8e-4 -0.3135,0.0429 -0.31351,0.0429 -0.34431,0.0894 -0.34431,0.0894 -0.42378,0.20905 -0.42377,0.20905 v -0.16704 -0.16704 l -0.097,-0.0959 -0.097,-0.0959 -0.15784,-0.0307 -0.15783,-0.0307 h -0.75144 -0.75144 l -0.18768,0.0496 -0.18768,0.0496 -0.06,0.0806 -0.06,0.0806 v 2.25828 2.25828 l 0.0927,0.0916 0.0927,0.0916 0.0797,0.0164 0.0797,0.0164 z"
           id="path215" /><path
           style="display:none;fill:none;fill-opacity:1;stroke-width:0.0005;stroke-linecap:round;stroke-linejoin:round;paint-order:markers stroke fill"
           d="m 340.41699,457.69781 c -0.81879,-0.3202 -1.29069,-0.68589 -1.52658,-1.18299 -0.18432,-0.38844 -0.20291,-2.09489 -0.20291,-18.63366 0,-19.6577 -0.0385,-18.5173 0.64593,-19.1563 0.16208,-0.15133 0.57524,-0.40445 0.91813,-0.5625 L 340.875,417.875 h 44.82134 44.82134 l 0.73772,0.37729 c 0.43517,0.22255 0.85448,0.55054 1.02242,0.79973 l 0.28468,0.42245 v 18.49797 18.49796 l -0.53221,0.53222 c -1.02738,1.02738 3.56227,0.9356 -46.45922,0.92904 -42.83322,-0.006 -44.5938,-0.0147 -45.15408,-0.23385 z m 26.52051,-6.0153 c 0.57943,-0.29226 0.9314,-0.68647 1.22423,-1.37113 0.23392,-0.54692 0.23919,-0.91112 0.17784,-12.28529 l -0.0632,-11.72166 -0.35089,-0.5533 c -0.2382,-0.3756 -0.55223,-0.65533 -0.97777,-0.87097 l -0.62687,-0.31766 H 355.875 345.42919 l -0.62687,0.31766 c -0.4358,0.22084 -0.73932,0.49499 -0.99584,0.89948 l -0.36898,0.58181 v 11.85673 c 0,12.75748 -0.0281,12.16326 0.60883,12.88888 0.21508,0.24505 0.99142,0.67611 1.51617,0.84186 0.17188,0.0543 4.95313,0.0662 10.625,0.0265 9.52123,-0.0667 10.34607,-0.0892 10.75,-0.2929 z m 41.04085,-5.37264 c 0.37138,-0.13895 0.99224,-0.4747 1.37969,-0.74611 0.69914,-0.48975 0.70446,-0.49115 0.70446,-0.18487 0,0.16974 0.1125,0.42111 0.25,0.55861 0.2237,0.2237 0.41667,0.25 1.83391,0.25 1.29843,0 1.62511,-0.0373 1.8125,-0.20687 0.21606,-0.19553 0.22859,-0.57541 0.22859,-6.92728 0,-3.69622 -0.0349,-6.81145 -0.0776,-6.92275 -0.15113,-0.39381 -0.74019,-0.5681 -1.92016,-0.5681 -1.30711,0 -1.95798,0.20477 -2.0598,0.64802 -0.0366,0.15922 -0.0808,2.23011 -0.0982,4.60198 -0.0288,3.92566 -0.0525,4.35175 -0.26394,4.75 -0.45885,0.86438 -1.36722,1.375 -2.44604,1.375 -0.95132,0 -1.53063,-0.27227 -1.97554,-0.9285 l -0.34509,-0.509 -0.12554,-4.78607 c -0.10554,-4.02353 -0.15542,-4.80493 -0.31305,-4.90441 -0.34279,-0.21635 -1.02445,-0.28244 -2.15658,-0.20909 -1.76271,0.1142 -1.61207,-0.45788 -1.56818,5.95564 L 400.875,443 l 0.38783,0.81843 c 0.63762,1.34554 1.53948,2.1563 2.85816,2.56944 0.84337,0.26423 3.06261,0.21936 3.85736,-0.078 z m 16.58078,-0.0587 c 2.33297,-0.79349 3.40645,-2.18506 3.42403,-4.43865 0.009,-1.12453 -0.16923,-1.64567 -0.88177,-2.58161 -0.43941,-0.57717 -1.85248,-1.21149 -3.85139,-1.72887 -1.93359,-0.50047 -2.91603,-0.86669 -3.15021,-1.1743 -0.29475,-0.38715 -0.19443,-1.00988 0.22593,-1.40256 0.39312,-0.36723 0.87462,-0.45696 2.09339,-0.39013 0.55778,0.0306 1.22726,0.45946 1.47637,0.94579 0.11105,0.2168 0.26437,0.43551 0.34072,0.48602 0.0763,0.0505 0.79102,0.0927 1.58818,0.0937 1.2822,0.002 1.47495,-0.0263 1.6711,-0.24309 0.17043,-0.18832 0.2015,-0.35281 0.1343,-0.71103 -0.13304,-0.70914 -0.73948,-1.80445 -1.27507,-2.30294 -1.27644,-1.18801 -4.17009,-1.80651 -6.3173,-1.35028 -0.73151,0.15543 -2.10726,0.82058 -2.61152,1.26263 -0.44628,0.39121 -1.04503,1.31032 -1.23685,1.89861 -0.0878,0.26923 -0.14929,0.95777 -0.13667,1.53017 0.0558,2.53349 1.1835,3.48448 5.44009,4.58777 2.34144,0.60689 2.65816,0.79575 2.51711,1.50099 -0.15866,0.79329 -0.98846,1.25445 -2.1268,1.18197 -0.95539,-0.0608 -1.64496,-0.40776 -2.13277,-1.073 -0.48412,-0.66021 -0.83849,-0.77989 -2.30936,-0.77989 -1.09818,0 -1.23426,0.0263 -1.47785,0.28559 -0.3474,0.36979 -0.26525,0.99613 0.26291,2.00453 0.62851,1.20002 1.83585,2.07071 3.48799,2.51542 0.40265,0.10839 1.30056,0.18123 2.29567,0.18624 1.4267,0.007 1.75067,-0.0313 2.54977,-0.30313 z m -47.60022,-0.27052 c 0.2082,-0.18842 0.22859,-0.45107 0.22859,-2.94417 v -2.73729 l 0.70158,-0.86833 c 0.38587,-0.47759 0.73743,-0.86614 0.78125,-0.86346 0.0438,0.003 1.20467,1.52948 2.57967,3.39289 1.375,1.86341 2.67539,3.57684 2.88976,3.80762 l 0.38976,0.41961 h 2.11649 c 2.27431,0 2.41649,-0.0374 2.41649,-0.63552 0,-0.30135 -2.65774,-4.01992 -6.26622,-8.76736 -0.40358,-0.53096 -0.73378,-1.04918 -0.73378,-1.15159 0,-0.15896 1.28828,-1.83405 5.58201,-7.25803 0.43539,-0.55 0.79192,-1.10887 0.7923,-1.24194 3.8e-4,-0.13307 -0.11432,-0.36437 -0.25489,-0.514 -0.24502,-0.26081 -0.32899,-0.26953 -2.03125,-0.21094 -0.97662,0.0336 -1.89642,0.12429 -2.044,0.2015 -0.30121,0.15759 -0.83598,0.81239 -4.27465,5.23413 -1.32325,1.70157 -2.4596,3.09375 -2.52522,3.09375 -0.0733,0 -0.1193,-1.5519 -0.1193,-4.0214 0,-3.56655 -0.0234,-4.04727 -0.20687,-4.25 -0.18118,-0.2002 -0.41891,-0.2286 -1.91393,-0.2286 -1.54982,0 -1.73247,0.0237 -1.98293,0.25702 l -0.27588,0.25702 0.0336,9.41132 c 0.0276,7.75626 0.0637,9.44766 0.20511,9.61798 0.25466,0.30678 3.57333,0.3066 3.91235,-2.1e-4 z m 17.40901,-0.0709 c 0.16498,-0.23555 0.19481,-0.82027 0.19607,-3.84375 0.002,-3.64194 0.0699,-4.31027 0.53088,-5.19094 0.50096,-0.95696 1.52068,-1.50682 3.06123,-1.65068 1.07211,-0.10011 1.15689,-0.23564 1.1547,-1.84588 -0.002,-1.55574 -0.0554,-1.75749 -0.51455,-1.94767 -0.95199,-0.39432 -2.84744,0.20353 -3.89,1.22697 l -0.59375,0.58287 v -0.51271 c 0,-0.31846 -0.0905,-0.6245 -0.23887,-0.8078 -0.21359,-0.26386 -0.35956,-0.29974 -1.37887,-0.33893 -1.3064,-0.0502 -1.66478,0.0139 -2.01044,0.35951 -0.2396,0.23961 -0.24682,0.44218 -0.24682,6.92844 0,4.80429 0.0408,6.77108 0.14507,7 l 0.14506,0.31838 h 1.72285 c 1.63864,0 1.73236,-0.0136 1.91744,-0.27781 z"
           id="path3"
           transform="matrix(0.66201185,0,0,0.34354987,-150.82314,-2.0078521)" /><path
           style="display:none;fill:#f9f9f9;fill-opacity:1;stroke-width:0.0005;stroke-linecap:round;stroke-linejoin:round;paint-order:markers stroke fill"
           d="m 340.41699,457.69781 c -0.81879,-0.3202 -1.29069,-0.68589 -1.52658,-1.18299 -0.18432,-0.38844 -0.20291,-2.09489 -0.20291,-18.63366 0,-19.6577 -0.0385,-18.5173 0.64593,-19.1563 0.16208,-0.15133 0.57524,-0.40445 0.91813,-0.5625 L 340.875,417.875 h 44.82134 44.82134 l 0.73772,0.37729 c 0.43517,0.22255 0.85448,0.55054 1.02242,0.79973 l 0.28468,0.42245 v 18.49797 18.49796 l -0.53221,0.53222 c -1.02738,1.02738 3.56227,0.9356 -46.45922,0.92904 -42.83322,-0.006 -44.5938,-0.0147 -45.15408,-0.23385 z m 26.52051,-6.0153 c 0.57943,-0.29226 0.9314,-0.68647 1.22423,-1.37113 0.23392,-0.54692 0.23919,-0.91112 0.17784,-12.28529 l -0.0632,-11.72166 -0.35089,-0.5533 c -0.2382,-0.3756 -0.55223,-0.65533 -0.97777,-0.87097 l -0.62687,-0.31766 H 355.875 345.42919 l -0.62687,0.31766 c -0.4358,0.22084 -0.73932,0.49499 -0.99584,0.89948 l -0.36898,0.58181 v 11.85673 c 0,12.75748 -0.0281,12.16326 0.60883,12.88888 0.21508,0.24505 0.99142,0.67611 1.51617,0.84186 0.17188,0.0543 4.95313,0.0662 10.625,0.0265 9.52123,-0.0667 10.34607,-0.0892 10.75,-0.2929 z m 41.04085,-5.37264 c 0.37138,-0.13895 0.99224,-0.4747 1.37969,-0.74611 0.69914,-0.48975 0.70446,-0.49115 0.70446,-0.18487 0,0.16974 0.1125,0.42111 0.25,0.55861 0.2237,0.2237 0.41667,0.25 1.83391,0.25 1.29843,0 1.62511,-0.0373 1.8125,-0.20687 0.21606,-0.19553 0.22859,-0.57541 0.22859,-6.92728 0,-3.69622 -0.0349,-6.81145 -0.0776,-6.92275 -0.15113,-0.39381 -0.74019,-0.5681 -1.92016,-0.5681 -1.30711,0 -1.95798,0.20477 -2.0598,0.64802 -0.0366,0.15922 -0.0808,2.23011 -0.0982,4.60198 -0.0288,3.92566 -0.0525,4.35175 -0.26394,4.75 -0.45885,0.86438 -1.36722,1.375 -2.44604,1.375 -0.95132,0 -1.53063,-0.27227 -1.97554,-0.9285 l -0.34509,-0.509 -0.12554,-4.78607 c -0.10554,-4.02353 -0.15542,-4.80493 -0.31305,-4.90441 -0.34279,-0.21635 -1.02445,-0.28244 -2.15658,-0.20909 -1.76271,0.1142 -1.61207,-0.45788 -1.56818,5.95564 L 400.875,443 l 0.38783,0.81843 c 0.63762,1.34554 1.53948,2.1563 2.85816,2.56944 0.84337,0.26423 3.06261,0.21936 3.85736,-0.078 z m 16.58078,-0.0587 c 2.33297,-0.79349 3.40645,-2.18506 3.42403,-4.43865 0.009,-1.12453 -0.16923,-1.64567 -0.88177,-2.58161 -0.43941,-0.57717 -1.85248,-1.21149 -3.85139,-1.72887 -1.93359,-0.50047 -2.91603,-0.86669 -3.15021,-1.1743 -0.29475,-0.38715 -0.19443,-1.00988 0.22593,-1.40256 0.39312,-0.36723 0.87462,-0.45696 2.09339,-0.39013 0.55778,0.0306 1.22726,0.45946 1.47637,0.94579 0.11105,0.2168 0.26437,0.43551 0.34072,0.48602 0.0763,0.0505 0.79102,0.0927 1.58818,0.0937 1.2822,0.002 1.47495,-0.0263 1.6711,-0.24309 0.17043,-0.18832 0.2015,-0.35281 0.1343,-0.71103 -0.13304,-0.70914 -0.73948,-1.80445 -1.27507,-2.30294 -1.27644,-1.18801 -4.17009,-1.80651 -6.3173,-1.35028 -0.73151,0.15543 -2.10726,0.82058 -2.61152,1.26263 -0.44628,0.39121 -1.04503,1.31032 -1.23685,1.89861 -0.0878,0.26923 -0.14929,0.95777 -0.13667,1.53017 0.0558,2.53349 1.1835,3.48448 5.44009,4.58777 2.34144,0.60689 2.65816,0.79575 2.51711,1.50099 -0.15866,0.79329 -0.98846,1.25445 -2.1268,1.18197 -0.95539,-0.0608 -1.64496,-0.40776 -2.13277,-1.073 -0.48412,-0.66021 -0.83849,-0.77989 -2.30936,-0.77989 -1.09818,0 -1.23426,0.0263 -1.47785,0.28559 -0.3474,0.36979 -0.26525,0.99613 0.26291,2.00453 0.62851,1.20002 1.83585,2.07071 3.48799,2.51542 0.40265,0.10839 1.30056,0.18123 2.29567,0.18624 1.4267,0.007 1.75067,-0.0313 2.54977,-0.30313 z m -47.60022,-0.27052 c 0.2082,-0.18842 0.22859,-0.45107 0.22859,-2.94417 v -2.73729 l 0.70158,-0.86833 c 0.38587,-0.47759 0.73743,-0.86614 0.78125,-0.86346 0.0438,0.003 1.20467,1.52948 2.57967,3.39289 1.375,1.86341 2.67539,3.57684 2.88976,3.80762 l 0.38976,0.41961 h 2.11649 c 2.27431,0 2.41649,-0.0374 2.41649,-0.63552 0,-0.30135 -2.65774,-4.01992 -6.26622,-8.76736 -0.40358,-0.53096 -0.73378,-1.04918 -0.73378,-1.15159 0,-0.15896 1.28828,-1.83405 5.58201,-7.25803 0.43539,-0.55 0.79192,-1.10887 0.7923,-1.24194 3.8e-4,-0.13307 -0.11432,-0.36437 -0.25489,-0.514 -0.24502,-0.26081 -0.32899,-0.26953 -2.03125,-0.21094 -0.97662,0.0336 -1.89642,0.12429 -2.044,0.2015 -0.30121,0.15759 -0.83598,0.81239 -4.27465,5.23413 -1.32325,1.70157 -2.4596,3.09375 -2.52522,3.09375 -0.0733,0 -0.1193,-1.5519 -0.1193,-4.0214 0,-3.56655 -0.0234,-4.04727 -0.20687,-4.25 -0.18118,-0.2002 -0.41891,-0.2286 -1.91393,-0.2286 -1.54982,0 -1.73247,0.0237 -1.98293,0.25702 l -0.27588,0.25702 0.0336,9.41132 c 0.0276,7.75626 0.0637,9.44766 0.20511,9.61798 0.25466,0.30678 3.57333,0.3066 3.91235,-2.1e-4 z m 17.40901,-0.0709 c 0.16498,-0.23555 0.19481,-0.82027 0.19607,-3.84375 0.002,-3.64194 0.0699,-4.31027 0.53088,-5.19094 0.50096,-0.95696 1.52068,-1.50682 3.06123,-1.65068 1.07211,-0.10011 1.15689,-0.23564 1.1547,-1.84588 -0.002,-1.55574 -0.0554,-1.75749 -0.51455,-1.94767 -0.95199,-0.39432 -2.84744,0.20353 -3.89,1.22697 l -0.59375,0.58287 v -0.51271 c 0,-0.31846 -0.0905,-0.6245 -0.23887,-0.8078 -0.21359,-0.26386 -0.35956,-0.29974 -1.37887,-0.33893 -1.3064,-0.0502 -1.66478,0.0139 -2.01044,0.35951 -0.2396,0.23961 -0.24682,0.44218 -0.24682,6.92844 0,4.80429 0.0408,6.77108 0.14507,7 l 0.14506,0.31838 h 1.72285 c 1.63864,0 1.73236,-0.0136 1.91744,-0.27781 z"
           id="path4"
           transform="matrix(0.66201185,0,0,0.34354987,-150.82314,-2.0078521)" /></g><rect
         style="display:none;fill:none;stroke:none;stroke-width:0.00105833;stroke-linecap:round;stroke-linejoin:round;stroke-dasharray:none;stroke-opacity:1;paint-order:markers stroke fill"
         id="rect7"
         width="8.8984051"
         height="3.9873273"
         x="142.30432"
         y="122.41447"
         rx="0.29700002"
         ry="0.2" /></g></g></svg>
